<?xml version="1.0" encoding="UTF-8"?>
<svg width="120" height="120" viewBox="0 0 120 120" fill="none" xmlns="http://www.w3.org/2000/svg">
  <rect width="120" height="120" rx="20" fill="#009EE3"/>
  <path d="M60 30C43.4315 30 30 43.4315 30 60C30 76.5685 43.4315 90 60 90C76.5685 90 90 76.5685 90 60C90 43.4315 76.5685 30 60 30ZM60 80C47.2975 80 37 69.7025 37 57C37 44.2975 47.2975 34 60 34C72.7025 34 83 44.2975 83 57C83 69.7025 72.7025 80 60 80Z" fill="white"/>
  <path d="M60 40C50.0589 40 42 48.0589 42 58C42 67.9411 50.0589 76 60 76C69.9411 76 78 67.9411 78 58C78 48.0589 69.9411 40 60 40Z" fill="white"/>
  <path d="M60 50C54.4772 50 50 54.4772 50 60C50 65.5228 54.4772 70 60 70C65.5228 70 70 65.5228 70 60C70 54.4772 65.5228 50 60 50Z" fill="#009EE3"/>
</svg> 